<svg width="155" height="35" viewBox="0 0 155 35" fill="none" xmlns="http://www.w3.org/2000/svg">
<path d="M16.7363 13.1665C16.7363 12.7928 16.5828 12.4391 16.2759 12.1055C15.9823 11.7718 15.6152 11.4782 15.1748 11.2246C14.7477 10.971 14.2939 10.7708 13.8135 10.624C13.3464 10.4772 12.9393 10.4038 12.5923 10.4038H9.80957L5.66553 13.1665V27.02H2.90283V7.62109H5.66553V9.8833L9.3291 7.62109H12.5923C12.8192 7.62109 13.1462 7.66113 13.5732 7.74121C14.0137 7.82129 14.4875 7.95475 14.9946 8.1416C15.5151 8.3151 16.0423 8.54867 16.5762 8.84229C17.11 9.12256 17.5905 9.46956 18.0176 9.8833C18.458 10.2837 18.8184 10.7575 19.0986 11.3047C19.3789 11.8385 19.519 12.4525 19.519 13.1465L16.7363 13.1665ZM39.939 21.4746C39.939 22.1686 39.7988 22.7892 39.5186 23.3364C39.2383 23.8703 38.8779 24.3441 38.4375 24.7578C38.0104 25.1715 37.5299 25.5252 36.9961 25.8188C36.4622 26.0991 35.9351 26.3327 35.4146 26.5195C34.9074 26.693 34.4336 26.8198 33.9932 26.8999C33.5661 26.98 33.2391 27.02 33.0122 27.02H30.2495C30.0226 27.02 29.689 26.98 29.2485 26.8999C28.8215 26.8198 28.3477 26.693 27.8271 26.5195C27.32 26.3327 26.7928 26.0991 26.2456 25.8188C25.7118 25.5252 25.2246 25.1715 24.7842 24.7578C24.3571 24.3441 24.0034 23.8703 23.7231 23.3364C23.4429 22.7892 23.3027 22.1686 23.3027 21.4746V13.1665C23.3027 12.4725 23.4429 11.8586 23.7231 11.3247C24.0034 10.7775 24.3571 10.297 24.7842 9.8833C25.2246 9.46956 25.7118 9.12256 26.2456 8.84229C26.7928 8.54867 27.32 8.3151 27.8271 8.1416C28.3477 7.95475 28.8215 7.82129 29.2485 7.74121C29.689 7.66113 30.0226 7.62109 30.2495 7.62109H33.0122C33.2391 7.62109 33.5661 7.66113 33.9932 7.74121C34.4336 7.82129 34.9074 7.95475 35.4146 8.1416C35.9351 8.3151 36.4622 8.54867 36.9961 8.84229C37.5299 9.12256 38.0104 9.46956 38.4375 9.8833C38.8779 10.297 39.2383 10.7775 39.5186 11.3247C39.7988 11.8586 39.939 12.4725 39.939 13.1665V18.7119H26.0854V21.4746C26.0854 21.8483 26.2389 22.202 26.5459 22.5356C26.8529 22.8693 27.2199 23.1629 27.647 23.4165C28.0874 23.6701 28.5412 23.8703 29.0083 24.0171C29.4888 24.1639 29.9025 24.2373 30.2495 24.2373H33.0122C33.3592 24.2373 33.7663 24.1639 34.2334 24.0171C34.7139 23.8703 35.1676 23.6701 35.5947 23.4165C36.0352 23.1629 36.4089 22.8693 36.7158 22.5356C37.0228 22.202 37.1763 21.8483 37.1763 21.4746H39.939ZM26.0854 15.9292H37.1763V13.1665C37.1763 12.7928 37.0228 12.4391 36.7158 12.1055C36.4089 11.7718 36.0352 11.4782 35.5947 11.2246C35.1676 10.971 34.7139 10.7708 34.2334 10.624C33.7663 10.4772 33.3592 10.4038 33.0122 10.4038H30.2495C29.9025 10.4038 29.4888 10.4772 29.0083 10.624C28.5412 10.7708 28.0874 10.971 27.647 11.2246C27.2199 11.4782 26.8529 11.7718 26.5459 12.1055C26.2389 12.4391 26.0854 12.7928 26.0854 13.1665V15.9292ZM52.6914 27.02L45.7446 7.62109H48.8076L54.0728 22.916L59.3179 7.62109H62.3608L55.4541 27.02H52.6914ZM77.8359 7.62109C78.0628 7.62109 78.3898 7.66113 78.8169 7.74121C79.2573 7.82129 79.7311 7.95475 80.2383 8.1416C80.7588 8.3151 81.286 8.54867 81.8198 8.84229C82.367 9.12256 82.8542 9.46956 83.2812 9.8833C83.7217 10.2837 84.082 10.7575 84.3623 11.3047C84.6426 11.8385 84.7827 12.4525 84.7827 13.1465V21.4546C84.7827 22.1753 84.6426 22.8159 84.3623 23.3765C84.082 23.9237 83.7217 24.4041 83.2812 24.8179C82.8542 25.2316 82.367 25.5786 81.8198 25.8589C81.286 26.1392 80.7588 26.366 80.2383 26.5396C79.7311 26.7131 79.2573 26.8398 78.8169 26.9199C78.3898 26.9867 78.0628 27.02 77.8359 27.02L74.5928 27L70.9092 24.6978V34.2671H68.1465V7.62109H70.9092V9.92334L74.5928 7.62109H77.8359ZM82 13.1465C82 12.7728 81.8465 12.4191 81.5396 12.0854C81.2459 11.7518 80.8789 11.4582 80.4385 11.2046C80.0114 10.951 79.5576 10.7508 79.0771 10.604C78.5967 10.4572 78.1829 10.3838 77.8359 10.3838H75.0933L70.9092 13.1465V21.4546L75.0933 24.2373H77.8359C78.1829 24.2373 78.5967 24.1639 79.0771 24.0171C79.5576 23.8703 80.0114 23.6701 80.4385 23.4165C80.8789 23.1629 81.2459 22.8693 81.5396 22.5356C81.8465 22.202 82 21.8416 82 21.4546V13.1465ZM100.258 7.62109C100.485 7.62109 100.818 7.66113 101.259 7.74121C101.699 7.82129 102.173 7.95475 102.68 8.1416C103.201 8.3151 103.728 8.54867 104.262 8.84229C104.796 9.12256 105.276 9.46956 105.703 9.8833C106.144 10.297 106.504 10.7775 106.784 11.3247C107.064 11.8586 107.205 12.4725 107.205 13.1665V21.4746C107.205 22.1686 107.064 22.7892 106.784 23.3364C106.504 23.8703 106.144 24.3441 105.703 24.7578C105.276 25.1715 104.796 25.5252 104.262 25.8188C103.728 26.0991 103.201 26.3327 102.68 26.5195C102.173 26.693 101.699 26.8198 101.259 26.8999C100.818 26.98 100.485 27.02 100.258 27.02H97.4951C97.2682 27.02 96.9346 26.98 96.4941 26.8999C96.0671 26.8198 95.5933 26.693 95.0728 26.5195C94.5656 26.3327 94.0451 26.0991 93.5112 25.8188C92.9774 25.5252 92.4902 25.1715 92.0498 24.7578C91.6227 24.3441 91.269 23.8703 90.9888 23.3364C90.7085 22.7892 90.5684 22.1686 90.5684 21.4746V13.1665C90.5684 12.4725 90.7085 11.8586 90.9888 11.3247C91.269 10.7775 91.6227 10.297 92.0498 9.8833C92.4902 9.46956 92.9774 9.12256 93.5112 8.84229C94.0451 8.54867 94.5656 8.3151 95.0728 8.1416C95.5933 7.95475 96.0671 7.82129 96.4941 7.74121C96.9346 7.66113 97.2682 7.62109 97.4951 7.62109H100.258ZM104.422 13.1665C104.422 12.7928 104.268 12.4391 103.961 12.1055C103.668 11.7718 103.301 11.4782 102.86 11.2246C102.433 10.971 101.979 10.7708 101.499 10.624C101.019 10.4772 100.605 10.4038 100.258 10.4038H97.4951C97.1481 10.4038 96.7344 10.4772 96.2539 10.624C95.7868 10.7708 95.333 10.971 94.8926 11.2246C94.4655 11.4782 94.0985 11.7718 93.7915 12.1055C93.4845 12.4391 93.3311 12.7928 93.3311 13.1665V21.4746C93.3311 21.8483 93.4845 22.202 93.7915 22.5356C94.0985 22.8693 94.4655 23.1629 94.8926 23.4165C95.333 23.6701 95.7868 23.8703 96.2539 24.0171C96.7344 24.1639 97.1481 24.2373 97.4951 24.2373H100.258C100.605 24.2373 101.019 24.1639 101.499 24.0171C101.979 23.8703 102.433 23.6701 102.86 23.4165C103.301 23.1629 103.668 22.8693 103.961 22.5356C104.268 22.202 104.422 21.8483 104.422 21.4746V13.1665ZM122.68 7.62109C122.907 7.62109 123.24 7.66113 123.681 7.74121C124.121 7.82129 124.595 7.95475 125.102 8.1416C125.623 8.3151 126.15 8.54867 126.684 8.84229C127.217 9.12256 127.698 9.46956 128.125 9.8833C128.565 10.297 128.926 10.7775 129.206 11.3247C129.486 11.8586 129.626 12.4725 129.626 13.1665V21.4746C129.626 22.1686 129.486 22.7892 129.206 23.3364C128.926 23.8703 128.565 24.3441 128.125 24.7578C127.698 25.1715 127.217 25.5252 126.684 25.8188C126.15 26.0991 125.623 26.3327 125.102 26.5195C124.595 26.693 124.121 26.8198 123.681 26.8999C123.24 26.98 122.907 27.02 122.68 27.02H119.917C119.69 27.02 119.356 26.98 118.916 26.8999C118.489 26.8198 118.015 26.693 117.495 26.5195C116.987 26.3327 116.467 26.0991 115.933 25.8188C115.399 25.5252 114.912 25.1715 114.472 24.7578C114.045 24.3441 113.691 23.8703 113.411 23.3364C113.13 22.7892 112.99 22.1686 112.99 21.4746V13.1665C112.99 12.4725 113.13 11.8586 113.411 11.3247C113.691 10.7775 114.045 10.297 114.472 9.8833C114.912 9.46956 115.399 9.12256 115.933 8.84229C116.467 8.54867 116.987 8.3151 117.495 8.1416C118.015 7.95475 118.489 7.82129 118.916 7.74121C119.356 7.66113 119.69 7.62109 119.917 7.62109H122.68ZM126.844 13.1665C126.844 12.7928 126.69 12.4391 126.383 12.1055C126.09 11.7718 125.723 11.4782 125.282 11.2246C124.855 10.971 124.401 10.7708 123.921 10.624C123.44 10.4772 123.027 10.4038 122.68 10.4038H119.917C119.57 10.4038 119.156 10.4772 118.676 10.624C118.209 10.7708 117.755 10.971 117.314 11.2246C116.887 11.4782 116.52 11.7718 116.213 12.1055C115.906 12.4391 115.753 12.7928 115.753 13.1665V21.4746C115.753 21.8483 115.906 22.202 116.213 22.5356C116.52 22.8693 116.887 23.1629 117.314 23.4165C117.755 23.6701 118.209 23.8703 118.676 24.0171C119.156 24.1639 119.57 24.2373 119.917 24.2373H122.68C123.027 24.2373 123.44 24.1639 123.921 24.0171C124.401 23.8703 124.855 23.6701 125.282 23.4165C125.723 23.1629 126.09 22.8693 126.383 22.5356C126.69 22.202 126.844 21.8483 126.844 21.4746V13.1665ZM150.667 27H136.813V24.2173H142.359V3.15674H138.195V0.374023H145.122V24.2173H150.667V27Z" fill="black"/>
<line x1="23" y1="30.5" x2="63" y2="30.5" stroke="#1DD1A1" stroke-width="3"/>
</svg>